<mxfile host="app.diagrams.net" agent="Mozilla/5.0 (Windows NT 10.0; Win64; x64) AppleWebKit/537.36 (KHTML, like Gecko) Chrome/128.0.0.0 Safari/537.36 OPR/114.0.0.0 (Edition MSI)" version="25.0.3">
  <diagram name="Database Diagram" id="zjHjOz-JIZwYE8kPhFqs">
    <mxGraphModel dx="14501" dy="9883" grid="1" gridSize="10" guides="1" tooltips="1" connect="1" arrows="1" fold="1" page="1" pageScale="1" pageWidth="827" pageHeight="1169" math="0" shadow="0">
      <root>
        <mxCell id="0" />
        <mxCell id="1" parent="0" />
        <mxCell id="t1EqGwTPBPDjFJbr2Biy-2" value="organizations" style="shape=swimlane;childLayout=stackLayout;horizontal=1;startSize=20;horizontalStack=0;resizeParent=1;resizeLast=0;" vertex="1" parent="1">
          <mxGeometry x="180" y="320" width="180" height="120" as="geometry" />
        </mxCell>
        <mxCell id="t1EqGwTPBPDjFJbr2Biy-3" value="organizations_id : INT (PK)" style="text;align=left;verticalAlign=top;" vertex="1" parent="t1EqGwTPBPDjFJbr2Biy-2">
          <mxGeometry y="20" width="180" height="20" as="geometry" />
        </mxCell>
        <mxCell id="t1EqGwTPBPDjFJbr2Biy-4" value="name : NVARCHAR(255)" style="text;align=left;verticalAlign=top;" vertex="1" parent="t1EqGwTPBPDjFJbr2Biy-2">
          <mxGeometry y="40" width="180" height="20" as="geometry" />
        </mxCell>
        <mxCell id="t1EqGwTPBPDjFJbr2Biy-5" value="comment : NVARCHAR(MAX)" style="text;align=left;verticalAlign=top;" vertex="1" parent="t1EqGwTPBPDjFJbr2Biy-2">
          <mxGeometry y="60" width="180" height="20" as="geometry" />
        </mxCell>
        <mxCell id="t1EqGwTPBPDjFJbr2Biy-6" value="departments" style="shape=swimlane;childLayout=stackLayout;horizontal=1;startSize=20;horizontalStack=0;resizeParent=1;resizeLast=0;" vertex="1" parent="1">
          <mxGeometry x="440" y="280" width="180" height="160" as="geometry" />
        </mxCell>
        <mxCell id="t1EqGwTPBPDjFJbr2Biy-7" value="departments_id : INT (PK)" style="text;align=left;verticalAlign=top;" vertex="1" parent="t1EqGwTPBPDjFJbr2Biy-6">
          <mxGeometry y="20" width="180" height="20" as="geometry" />
        </mxCell>
        <mxCell id="t1EqGwTPBPDjFJbr2Biy-8" value="organizations_id : INT (FK)" style="text;align=left;verticalAlign=top;" vertex="1" parent="t1EqGwTPBPDjFJbr2Biy-6">
          <mxGeometry y="40" width="180" height="20" as="geometry" />
        </mxCell>
        <mxCell id="t1EqGwTPBPDjFJbr2Biy-9" value="name : NVARCHAR(255)" style="text;align=left;verticalAlign=top;" vertex="1" parent="t1EqGwTPBPDjFJbr2Biy-6">
          <mxGeometry y="60" width="180" height="20" as="geometry" />
        </mxCell>
        <mxCell id="t1EqGwTPBPDjFJbr2Biy-10" value="parent_id : INT (FK)" style="text;align=left;verticalAlign=top;" vertex="1" parent="t1EqGwTPBPDjFJbr2Biy-6">
          <mxGeometry y="80" width="180" height="20" as="geometry" />
        </mxCell>
        <mxCell id="t1EqGwTPBPDjFJbr2Biy-11" value="comment : NVARCHAR(MAX)" style="text;align=left;verticalAlign=top;" vertex="1" parent="t1EqGwTPBPDjFJbr2Biy-6">
          <mxGeometry y="100" width="180" height="20" as="geometry" />
        </mxCell>
        <mxCell id="t1EqGwTPBPDjFJbr2Biy-12" value="positions" style="shape=swimlane;childLayout=stackLayout;horizontal=1;startSize=20;horizontalStack=0;resizeParent=1;resizeLast=0;" vertex="1" parent="1">
          <mxGeometry x="1030" y="300" width="180" height="80" as="geometry" />
        </mxCell>
        <mxCell id="t1EqGwTPBPDjFJbr2Biy-13" value="position_id : INT (PK)" style="text;align=left;verticalAlign=top;" vertex="1" parent="t1EqGwTPBPDjFJbr2Biy-12">
          <mxGeometry y="20" width="180" height="20" as="geometry" />
        </mxCell>
        <mxCell id="t1EqGwTPBPDjFJbr2Biy-14" value="name : NVARCHAR(255)" style="text;align=left;verticalAlign=top;" vertex="1" parent="t1EqGwTPBPDjFJbr2Biy-12">
          <mxGeometry y="40" width="180" height="20" as="geometry" />
        </mxCell>
        <mxCell id="t1EqGwTPBPDjFJbr2Biy-18" style="edgeStyle=orthogonalEdgeStyle;rounded=0;orthogonalLoop=1;jettySize=auto;html=1;exitX=0.5;exitY=1;exitDx=0;exitDy=0;entryX=1;entryY=0.5;entryDx=0;entryDy=0;" edge="1" parent="1" source="t1EqGwTPBPDjFJbr2Biy-19" target="t1EqGwTPBPDjFJbr2Biy-39">
          <mxGeometry relative="1" as="geometry" />
        </mxCell>
        <mxCell id="t1EqGwTPBPDjFJbr2Biy-19" value="employees" style="shape=swimlane;childLayout=stackLayout;horizontal=1;startSize=20;horizontalStack=0;resizeParent=1;resizeLast=0;" vertex="1" parent="1">
          <mxGeometry x="730" y="-140" width="220" height="320" as="geometry" />
        </mxCell>
        <mxCell id="t1EqGwTPBPDjFJbr2Biy-20" value="employee_id : INT (PK)" style="text;align=left;verticalAlign=top;" vertex="1" parent="t1EqGwTPBPDjFJbr2Biy-19">
          <mxGeometry y="20" width="220" height="20" as="geometry" />
        </mxCell>
        <mxCell id="t1EqGwTPBPDjFJbr2Biy-21" value="last_name : NVARCHAR(50)" style="text;align=left;verticalAlign=top;" vertex="1" parent="t1EqGwTPBPDjFJbr2Biy-19">
          <mxGeometry y="40" width="220" height="20" as="geometry" />
        </mxCell>
        <mxCell id="t1EqGwTPBPDjFJbr2Biy-22" value="first_name : NVARCHAR(50)" style="text;align=left;verticalAlign=top;" vertex="1" parent="t1EqGwTPBPDjFJbr2Biy-19">
          <mxGeometry y="60" width="220" height="20" as="geometry" />
        </mxCell>
        <mxCell id="t1EqGwTPBPDjFJbr2Biy-23" value="middle_name : NVARCHAR(50)" style="text;align=left;verticalAlign=top;" vertex="1" parent="t1EqGwTPBPDjFJbr2Biy-19">
          <mxGeometry y="80" width="220" height="20" as="geometry" />
        </mxCell>
        <mxCell id="t1EqGwTPBPDjFJbr2Biy-24" value="date_of_birth : DATE" style="text;align=left;verticalAlign=top;" vertex="1" parent="t1EqGwTPBPDjFJbr2Biy-19">
          <mxGeometry y="100" width="220" height="20" as="geometry" />
        </mxCell>
        <mxCell id="t1EqGwTPBPDjFJbr2Biy-25" value="passport_details : NVARCHAR(20)" style="text;align=left;verticalAlign=top;" vertex="1" parent="t1EqGwTPBPDjFJbr2Biy-19">
          <mxGeometry y="120" width="220" height="20" as="geometry" />
        </mxCell>
        <mxCell id="t1EqGwTPBPDjFJbr2Biy-26" value="passport_issue_date : DATE" style="text;align=left;verticalAlign=top;" vertex="1" parent="t1EqGwTPBPDjFJbr2Biy-19">
          <mxGeometry y="140" width="220" height="20" as="geometry" />
        </mxCell>
        <mxCell id="t1EqGwTPBPDjFJbr2Biy-27" value="passport_division_code : NVARCHAR(10)" style="text;align=left;verticalAlign=top;" vertex="1" parent="t1EqGwTPBPDjFJbr2Biy-19">
          <mxGeometry y="160" width="220" height="20" as="geometry" />
        </mxCell>
        <mxCell id="t1EqGwTPBPDjFJbr2Biy-28" value="passport_issued_by : NVARCHAR(255)" style="text;align=left;verticalAlign=top;" vertex="1" parent="t1EqGwTPBPDjFJbr2Biy-19">
          <mxGeometry y="180" width="220" height="20" as="geometry" />
        </mxCell>
        <mxCell id="t1EqGwTPBPDjFJbr2Biy-29" value="address : NVARCHAR(255)" style="text;align=left;verticalAlign=top;" vertex="1" parent="t1EqGwTPBPDjFJbr2Biy-19">
          <mxGeometry y="200" width="220" height="20" as="geometry" />
        </mxCell>
        <mxCell id="t1EqGwTPBPDjFJbr2Biy-30" value="salary : DECIMAL(18,2)" style="text;align=left;verticalAlign=top;" vertex="1" parent="t1EqGwTPBPDjFJbr2Biy-19">
          <mxGeometry y="220" width="220" height="20" as="geometry" />
        </mxCell>
        <mxCell id="t1EqGwTPBPDjFJbr2Biy-31" value="status_id : INT (FK)" style="text;align=left;verticalAlign=top;" vertex="1" parent="t1EqGwTPBPDjFJbr2Biy-19">
          <mxGeometry y="240" width="220" height="20" as="geometry" />
        </mxCell>
        <mxCell id="t1EqGwTPBPDjFJbr2Biy-32" value="files" style="shape=swimlane;childLayout=stackLayout;horizontal=1;startSize=20;horizontalStack=0;resizeParent=1;resizeLast=0;" vertex="1" parent="1">
          <mxGeometry x="1010" y="-220" width="220" height="120" as="geometry" />
        </mxCell>
        <mxCell id="t1EqGwTPBPDjFJbr2Biy-33" value="scan_id : INT (PK)" style="text;align=left;verticalAlign=top;" vertex="1" parent="t1EqGwTPBPDjFJbr2Biy-32">
          <mxGeometry y="20" width="220" height="20" as="geometry" />
        </mxCell>
        <mxCell id="t1EqGwTPBPDjFJbr2Biy-34" value="file_name: NVARCHAR(50)" style="text;align=left;verticalAlign=top;" vertex="1" parent="t1EqGwTPBPDjFJbr2Biy-32">
          <mxGeometry y="40" width="220" height="20" as="geometry" />
        </mxCell>
        <mxCell id="t1EqGwTPBPDjFJbr2Biy-35" value="file_path: NVARCHAR(50)" style="text;align=left;verticalAlign=top;" vertex="1" parent="t1EqGwTPBPDjFJbr2Biy-32">
          <mxGeometry y="60" width="220" height="20" as="geometry" />
        </mxCell>
        <mxCell id="t1EqGwTPBPDjFJbr2Biy-36" value="employee_id : INT (FK)" style="text;align=left;verticalAlign=top;" vertex="1" parent="t1EqGwTPBPDjFJbr2Biy-32">
          <mxGeometry y="80" width="220" height="20" as="geometry" />
        </mxCell>
        <mxCell id="t1EqGwTPBPDjFJbr2Biy-37" value="hr_operations" style="shape=swimlane;childLayout=stackLayout;horizontal=1;startSize=20;horizontalStack=0;resizeParent=1;resizeLast=0;" vertex="1" parent="1">
          <mxGeometry x="720" y="250" width="220" height="160" as="geometry" />
        </mxCell>
        <mxCell id="t1EqGwTPBPDjFJbr2Biy-38" value="operation_id : INT (PK)" style="text;align=left;verticalAlign=top;" vertex="1" parent="t1EqGwTPBPDjFJbr2Biy-37">
          <mxGeometry y="20" width="220" height="20" as="geometry" />
        </mxCell>
        <mxCell id="t1EqGwTPBPDjFJbr2Biy-39" value="employee_id : INT (FK)" style="text;align=left;verticalAlign=top;" vertex="1" parent="t1EqGwTPBPDjFJbr2Biy-37">
          <mxGeometry y="40" width="220" height="20" as="geometry" />
        </mxCell>
        <mxCell id="t1EqGwTPBPDjFJbr2Biy-40" value="operation_type : NVARCHAR(50)" style="text;align=left;verticalAlign=top;" vertex="1" parent="t1EqGwTPBPDjFJbr2Biy-37">
          <mxGeometry y="60" width="220" height="20" as="geometry" />
        </mxCell>
        <mxCell id="t1EqGwTPBPDjFJbr2Biy-41" value="departments_id : INT (FK)" style="text;align=left;verticalAlign=top;" vertex="1" parent="t1EqGwTPBPDjFJbr2Biy-37">
          <mxGeometry y="80" width="220" height="20" as="geometry" />
        </mxCell>
        <mxCell id="t1EqGwTPBPDjFJbr2Biy-42" value="position_id : INT (FK)" style="text;align=left;verticalAlign=top;" vertex="1" parent="t1EqGwTPBPDjFJbr2Biy-37">
          <mxGeometry y="100" width="220" height="20" as="geometry" />
        </mxCell>
        <mxCell id="t1EqGwTPBPDjFJbr2Biy-43" value="operation_date : DATE" style="text;align=left;verticalAlign=top;" vertex="1" parent="t1EqGwTPBPDjFJbr2Biy-37">
          <mxGeometry y="120" width="220" height="20" as="geometry" />
        </mxCell>
        <mxCell id="t1EqGwTPBPDjFJbr2Biy-91" value="status_name : NVARCHAR(50)" style="text;align=left;verticalAlign=top;" vertex="1" parent="t1EqGwTPBPDjFJbr2Biy-37">
          <mxGeometry y="140" width="220" height="20" as="geometry" />
        </mxCell>
        <mxCell id="t1EqGwTPBPDjFJbr2Biy-44" value="change_history" style="shape=swimlane;childLayout=stackLayout;horizontal=1;startSize=20;horizontalStack=0;resizeParent=1;resizeLast=0;" vertex="1" parent="1">
          <mxGeometry x="117" y="-311" width="220" height="120" as="geometry" />
        </mxCell>
        <mxCell id="t1EqGwTPBPDjFJbr2Biy-45" value="нistory_id : INT (PK)" style="text;align=left;verticalAlign=top;" vertex="1" parent="t1EqGwTPBPDjFJbr2Biy-44">
          <mxGeometry y="20" width="220" height="20" as="geometry" />
        </mxCell>
        <mxCell id="t1EqGwTPBPDjFJbr2Biy-46" value="operation_timestamp : DATETIME" style="text;align=left;verticalAlign=top;" vertex="1" parent="t1EqGwTPBPDjFJbr2Biy-44">
          <mxGeometry y="40" width="220" height="20" as="geometry" />
        </mxCell>
        <mxCell id="t1EqGwTPBPDjFJbr2Biy-47" value="operation_object : NVARCHAR(50)" style="text;align=left;verticalAlign=top;" vertex="1" parent="t1EqGwTPBPDjFJbr2Biy-44">
          <mxGeometry y="60" width="220" height="20" as="geometry" />
        </mxCell>
        <mxCell id="t1EqGwTPBPDjFJbr2Biy-48" value="changed_fields : NVARCHAR(MAX)" style="text;align=left;verticalAlign=top;" vertex="1" parent="t1EqGwTPBPDjFJbr2Biy-44">
          <mxGeometry y="80" width="220" height="20" as="geometry" />
        </mxCell>
        <mxCell id="t1EqGwTPBPDjFJbr2Biy-49" value="user_id : INT (FK)" style="text;align=left;verticalAlign=top;" vertex="1" parent="t1EqGwTPBPDjFJbr2Biy-44">
          <mxGeometry y="100" width="220" height="20" as="geometry" />
        </mxCell>
        <mxCell id="t1EqGwTPBPDjFJbr2Biy-50" edge="1" parent="1" source="t1EqGwTPBPDjFJbr2Biy-2" target="t1EqGwTPBPDjFJbr2Biy-6" />
        <mxCell id="t1EqGwTPBPDjFJbr2Biy-51" edge="1" parent="1" source="t1EqGwTPBPDjFJbr2Biy-6" target="t1EqGwTPBPDjFJbr2Biy-6" />
        <mxCell id="t1EqGwTPBPDjFJbr2Biy-52" edge="1" parent="1" source="t1EqGwTPBPDjFJbr2Biy-15" target="t1EqGwTPBPDjFJbr2Biy-19" />
        <mxCell id="t1EqGwTPBPDjFJbr2Biy-53" edge="1" parent="1" source="t1EqGwTPBPDjFJbr2Biy-19" target="t1EqGwTPBPDjFJbr2Biy-32" />
        <mxCell id="t1EqGwTPBPDjFJbr2Biy-54" edge="1" parent="1" source="t1EqGwTPBPDjFJbr2Biy-19" target="t1EqGwTPBPDjFJbr2Biy-37" />
        <mxCell id="t1EqGwTPBPDjFJbr2Biy-55" edge="1" parent="1" source="t1EqGwTPBPDjFJbr2Biy-6" target="t1EqGwTPBPDjFJbr2Biy-37" />
        <mxCell id="t1EqGwTPBPDjFJbr2Biy-56" edge="1" parent="1" source="t1EqGwTPBPDjFJbr2Biy-12" target="t1EqGwTPBPDjFJbr2Biy-37" />
        <mxCell id="t1EqGwTPBPDjFJbr2Biy-57" style="edgeStyle=orthogonalEdgeStyle;rounded=0;orthogonalLoop=1;jettySize=auto;html=1;exitX=0;exitY=0.5;exitDx=0;exitDy=0;entryX=1;entryY=0.5;entryDx=0;entryDy=0;" edge="1" parent="1" source="t1EqGwTPBPDjFJbr2Biy-13" target="t1EqGwTPBPDjFJbr2Biy-42">
          <mxGeometry relative="1" as="geometry" />
        </mxCell>
        <mxCell id="t1EqGwTPBPDjFJbr2Biy-58" style="edgeStyle=orthogonalEdgeStyle;rounded=0;orthogonalLoop=1;jettySize=auto;html=1;exitX=1;exitY=0.25;exitDx=0;exitDy=0;entryX=0;entryY=0.5;entryDx=0;entryDy=0;" edge="1" parent="1" source="t1EqGwTPBPDjFJbr2Biy-7" target="t1EqGwTPBPDjFJbr2Biy-41">
          <mxGeometry relative="1" as="geometry" />
        </mxCell>
        <mxCell id="t1EqGwTPBPDjFJbr2Biy-60" style="edgeStyle=orthogonalEdgeStyle;rounded=0;orthogonalLoop=1;jettySize=auto;html=1;exitX=1;exitY=0.5;exitDx=0;exitDy=0;entryX=0;entryY=0.75;entryDx=0;entryDy=0;" edge="1" parent="1" source="t1EqGwTPBPDjFJbr2Biy-3" target="t1EqGwTPBPDjFJbr2Biy-8">
          <mxGeometry relative="1" as="geometry" />
        </mxCell>
        <mxCell id="t1EqGwTPBPDjFJbr2Biy-61" value="user" style="shape=swimlane;childLayout=stackLayout;horizontal=1;startSize=20;horizontalStack=0;resizeParent=1;resizeLast=0;" vertex="1" parent="1">
          <mxGeometry x="477" y="-311" width="180" height="160" as="geometry" />
        </mxCell>
        <mxCell id="t1EqGwTPBPDjFJbr2Biy-62" value="user_id : INT (PK)" style="text;align=left;verticalAlign=top;" vertex="1" parent="t1EqGwTPBPDjFJbr2Biy-61">
          <mxGeometry y="20" width="180" height="20" as="geometry" />
        </mxCell>
        <mxCell id="t1EqGwTPBPDjFJbr2Biy-63" value="last_name : NVARCHAR(50)" style="text;align=left;verticalAlign=top;" vertex="1" parent="t1EqGwTPBPDjFJbr2Biy-61">
          <mxGeometry y="40" width="180" height="20" as="geometry" />
        </mxCell>
        <mxCell id="t1EqGwTPBPDjFJbr2Biy-64" value="first_name : NVARCHAR(50)" style="text;align=left;verticalAlign=top;" vertex="1" parent="t1EqGwTPBPDjFJbr2Biy-61">
          <mxGeometry y="60" width="180" height="20" as="geometry" />
        </mxCell>
        <mxCell id="t1EqGwTPBPDjFJbr2Biy-65" value="patronomic: NVARCHAR(50)" style="text;align=left;verticalAlign=top;" vertex="1" parent="t1EqGwTPBPDjFJbr2Biy-61">
          <mxGeometry y="80" width="180" height="20" as="geometry" />
        </mxCell>
        <mxCell id="t1EqGwTPBPDjFJbr2Biy-66" value="login: NVARCHAR(50)" style="text;align=left;verticalAlign=top;" vertex="1" parent="t1EqGwTPBPDjFJbr2Biy-61">
          <mxGeometry y="100" width="180" height="20" as="geometry" />
        </mxCell>
        <mxCell id="t1EqGwTPBPDjFJbr2Biy-67" value="password: NVARCHAR(50)" style="text;align=left;verticalAlign=top;" vertex="1" parent="t1EqGwTPBPDjFJbr2Biy-61">
          <mxGeometry y="120" width="180" height="20" as="geometry" />
        </mxCell>
        <mxCell id="t1EqGwTPBPDjFJbr2Biy-68" value="role_id : INT (PK)" style="text;align=left;verticalAlign=top;" vertex="1" parent="t1EqGwTPBPDjFJbr2Biy-61">
          <mxGeometry y="140" width="180" height="20" as="geometry" />
        </mxCell>
        <mxCell id="t1EqGwTPBPDjFJbr2Biy-69" style="edgeStyle=orthogonalEdgeStyle;rounded=0;orthogonalLoop=1;jettySize=auto;html=1;exitX=0;exitY=0.5;exitDx=0;exitDy=0;entryX=1;entryY=0.75;entryDx=0;entryDy=0;" edge="1" parent="1" source="t1EqGwTPBPDjFJbr2Biy-62" target="t1EqGwTPBPDjFJbr2Biy-49">
          <mxGeometry relative="1" as="geometry" />
        </mxCell>
        <mxCell id="t1EqGwTPBPDjFJbr2Biy-70" style="edgeStyle=orthogonalEdgeStyle;rounded=0;orthogonalLoop=1;jettySize=auto;html=1;exitX=1;exitY=0.5;exitDx=0;exitDy=0;entryX=0;entryY=0.5;entryDx=0;entryDy=0;" edge="1" parent="1" source="t1EqGwTPBPDjFJbr2Biy-20" target="t1EqGwTPBPDjFJbr2Biy-36">
          <mxGeometry relative="1" as="geometry">
            <mxPoint x="1250" y="-50" as="targetPoint" />
          </mxGeometry>
        </mxCell>
        <mxCell id="t1EqGwTPBPDjFJbr2Biy-71" value="*" style="text;html=1;align=center;verticalAlign=middle;whiteSpace=wrap;rounded=0;" vertex="1" parent="1">
          <mxGeometry x="327" y="-231" width="60" height="30" as="geometry" />
        </mxCell>
        <mxCell id="t1EqGwTPBPDjFJbr2Biy-73" value="*" style="text;html=1;align=center;verticalAlign=middle;whiteSpace=wrap;rounded=0;" vertex="1" parent="1">
          <mxGeometry x="950" y="280" width="60" height="30" as="geometry" />
        </mxCell>
        <mxCell id="t1EqGwTPBPDjFJbr2Biy-74" value="*" style="text;html=1;align=center;verticalAlign=middle;whiteSpace=wrap;rounded=0;" vertex="1" parent="1">
          <mxGeometry x="970" y="-150" width="60" height="30" as="geometry" />
        </mxCell>
        <mxCell id="t1EqGwTPBPDjFJbr2Biy-75" value="*" style="text;html=1;align=center;verticalAlign=middle;whiteSpace=wrap;rounded=0;" vertex="1" parent="1">
          <mxGeometry x="930" y="365" width="60" height="30" as="geometry" />
        </mxCell>
        <mxCell id="t1EqGwTPBPDjFJbr2Biy-76" value="*" style="text;html=1;align=center;verticalAlign=middle;whiteSpace=wrap;rounded=0;" vertex="1" parent="1">
          <mxGeometry x="680" y="345" width="60" height="30" as="geometry" />
        </mxCell>
        <mxCell id="t1EqGwTPBPDjFJbr2Biy-77" value="*" style="text;html=1;align=center;verticalAlign=middle;whiteSpace=wrap;rounded=0;" vertex="1" parent="1">
          <mxGeometry x="400" y="300" width="60" height="30" as="geometry" />
        </mxCell>
        <mxCell id="t1EqGwTPBPDjFJbr2Biy-78" value="1" style="text;html=1;align=center;verticalAlign=middle;whiteSpace=wrap;rounded=0;" vertex="1" parent="1">
          <mxGeometry x="427" y="-311" width="60" height="30" as="geometry" />
        </mxCell>
        <mxCell id="t1EqGwTPBPDjFJbr2Biy-80" value="1" style="text;html=1;align=center;verticalAlign=middle;whiteSpace=wrap;rounded=0;" vertex="1" parent="1">
          <mxGeometry x="930" y="-140" width="60" height="30" as="geometry" />
        </mxCell>
        <mxCell id="t1EqGwTPBPDjFJbr2Biy-81" value="1" style="text;html=1;align=center;verticalAlign=middle;whiteSpace=wrap;rounded=0;" vertex="1" parent="1">
          <mxGeometry x="790" y="180" width="60" height="30" as="geometry" />
        </mxCell>
        <mxCell id="t1EqGwTPBPDjFJbr2Biy-82" value="1" style="text;html=1;align=center;verticalAlign=middle;whiteSpace=wrap;rounded=0;" vertex="1" parent="1">
          <mxGeometry x="990" y="300" width="60" height="30" as="geometry" />
        </mxCell>
        <mxCell id="t1EqGwTPBPDjFJbr2Biy-83" value="1" style="text;html=1;align=center;verticalAlign=middle;whiteSpace=wrap;rounded=0;" vertex="1" parent="1">
          <mxGeometry x="600" y="270" width="60" height="30" as="geometry" />
        </mxCell>
        <mxCell id="t1EqGwTPBPDjFJbr2Biy-84" value="1" style="text;html=1;align=center;verticalAlign=middle;whiteSpace=wrap;rounded=0;" vertex="1" parent="1">
          <mxGeometry x="340" y="315" width="60" height="30" as="geometry" />
        </mxCell>
        <mxCell id="t1EqGwTPBPDjFJbr2Biy-85" value="role" style="shape=swimlane;childLayout=stackLayout;horizontal=1;startSize=20;horizontalStack=0;resizeParent=1;resizeLast=0;" vertex="1" parent="1">
          <mxGeometry x="713" y="-303" width="180" height="80" as="geometry" />
        </mxCell>
        <mxCell id="t1EqGwTPBPDjFJbr2Biy-86" value="role_id : INT (PK)" style="text;align=left;verticalAlign=top;" vertex="1" parent="t1EqGwTPBPDjFJbr2Biy-85">
          <mxGeometry y="20" width="180" height="20" as="geometry" />
        </mxCell>
        <mxCell id="t1EqGwTPBPDjFJbr2Biy-87" value="name : NVARCHAR(50)" style="text;align=left;verticalAlign=top;" vertex="1" parent="t1EqGwTPBPDjFJbr2Biy-85">
          <mxGeometry y="40" width="180" height="20" as="geometry" />
        </mxCell>
        <mxCell id="t1EqGwTPBPDjFJbr2Biy-88" style="edgeStyle=none;curved=1;rounded=0;orthogonalLoop=1;jettySize=auto;html=1;exitX=0;exitY=0.5;exitDx=0;exitDy=0;entryX=1;entryY=0.75;entryDx=0;entryDy=0;fontSize=12;startSize=8;endSize=8;" edge="1" parent="1" source="t1EqGwTPBPDjFJbr2Biy-86" target="t1EqGwTPBPDjFJbr2Biy-68">
          <mxGeometry relative="1" as="geometry" />
        </mxCell>
        <mxCell id="t1EqGwTPBPDjFJbr2Biy-89" value="1" style="text;html=1;align=center;verticalAlign=middle;whiteSpace=wrap;rounded=0;" vertex="1" parent="1">
          <mxGeometry x="664" y="-292" width="60" height="30" as="geometry" />
        </mxCell>
        <mxCell id="t1EqGwTPBPDjFJbr2Biy-90" value="*" style="text;html=1;align=center;verticalAlign=middle;whiteSpace=wrap;rounded=0;" vertex="1" parent="1">
          <mxGeometry x="653" y="-191" width="60" height="30" as="geometry" />
        </mxCell>
      </root>
    </mxGraphModel>
  </diagram>
</mxfile>
